<?xml version="1.0" encoding="UTF-8"?>
<svg id="Layer_2" data-name="Layer 2" xmlns="http://www.w3.org/2000/svg" viewBox="0 0 139.21 166.1">
  <defs>
    <style>
      .cls-1 {
        fill: #fff;
      }
    </style>
  </defs>
  <g id="Layer_1-2" data-name="Layer 1">
    <g id="m0cTnY">
      <g>
        <path class="cls-1" d="M118.4,163.85c4.05-2.81,7.11-6.83,8.83-11.47s1.79-9.33.41-13.95c-.79-2.65-1.98-4.98-3.44-7.31-1.31-2.1-2.44-4.2-3.31-6.51-1.16-3.07-1.47-6.37,1.57-7.98,1.42-.76,2.97-1.22,4.6-1.49l5.69-.95c3.45-.57,7.09-2.02,6.37-5.85-.22-1.17-.8-2.25-1.59-3.18-1.15-1.34-2.42-2.51-3.8-3.62l-4.07-3.25c-4.87-3.9-9.36-8.06-12.98-13.17.06-6.39,3.12-12.7,6.38-18.09l4.92-8.1,4.28-7.96c2.4-5.15,3.92-10.57,4.3-16.24.33-4.82-.49-10.55-4.17-13.8-3.25-2.86-8.05-2.87-11.25.09-1.24,1.15-2.19,2.53-3.28,3.86l-4.38,5.32c-1.85,2.25-5.37,5.51-8.22,6.32-2.97-8.6-7.23-16.99-13.28-23.7l-3.66-3.66c-3.92-3.52-8.44-6.2-13.47-7.77-8.14-2.53-16.8-1.57-24.16,2.71-12.42,7.21-18.64,21.18-20.09,35.21-1.96-.84-3.72-1.9-5.19-3.38l-3.45-3.46-3.52-3.52c-1.28-1.28-2.77-2.24-4.37-3.07-4.37-2.28-9.29-1.99-12.03,2.24-1.17,1.8-1.76,3.84-1.95,6.01-.58,6.5,2.05,13.4,5.33,18.99,2.13,3.62,4.6,6.88,7.42,9.98,1.88,2.07,3.88,3.87,5.85,5.84l3.47,3.47c5.09,5.32,9.74,10.95,13.87,17.07.91,7.77,3.36,13.97,8.37,19.94,6.14,7.23,14.24,12.67,22.37,17.48,5.92,3.5,10.86,8.24,14.51,14.05l2.87,4.85,2.06,3.11c2.04,2.53,5.63,2.71,7.96.42,2.83-2.88,2.99-7.33,2.34-11.44,4.7,4.15,9.27,9.37,11.35,15.28.99,2.81,1.24,5.64.84,8.59-.17,1.26.22,2.56,1.13,3.4,2.2,2.04,6.12.41,8.58-1.3Z"/>
        <path d="M118.4,163.85c-2.46,1.71-6.37,3.34-8.58,1.3-.9-.84-1.3-2.14-1.13-3.4.41-2.94.15-5.78-.84-8.59-2.08-5.92-6.65-11.13-11.35-15.28.65,4.11.5,8.56-2.34,11.44-2.33,2.28-5.92,2.1-7.96-.42l-2.06-3.11-2.87-4.85c-3.65-5.82-8.58-10.55-14.51-14.05-8.14-4.81-16.23-10.25-22.37-17.48-5.01-5.97-7.46-12.17-8.37-19.94-4.13-6.12-8.78-11.75-13.87-17.07l-3.47-3.47c-1.97-1.97-3.97-3.77-5.85-5.84-2.83-3.1-5.29-6.36-7.42-9.98C2.12,47.53-.5,40.63.08,34.13c.19-2.17.78-4.2,1.95-6.01,2.74-4.23,7.66-4.52,12.03-2.24,1.6.83,3.09,1.79,4.37,3.07l3.52,3.52,3.45,3.46c1.47,1.47,3.23,2.53,5.19,3.38,1.45-14.03,7.67-28,20.09-35.21C58.04-.18,66.7-1.15,74.84,1.38c5.03,1.57,9.56,4.25,13.47,7.77l3.66,3.66c6.05,6.71,10.3,15.11,13.28,23.7,2.84-.81,6.37-4.07,8.22-6.32l4.38-5.32c1.09-1.33,2.04-2.71,3.28-3.86,3.21-2.96,8.01-2.96,11.25-.09,3.68,3.25,4.5,8.98,4.17,13.8-.38,5.67-1.9,11.1-4.3,16.24l-4.28,7.96-4.92,8.1c-3.27,5.38-6.33,11.69-6.38,18.09,3.62,5.11,8.11,9.27,12.98,13.17l4.07,3.25c1.38,1.11,2.66,2.28,3.8,3.62.79.93,1.37,2.01,1.59,3.18.72,3.83-2.92,5.28-6.37,5.85l-5.69.95c-1.63.27-3.18.73-4.6,1.49-3.04,1.62-2.73,4.91-1.57,7.98.87,2.31,2,4.41,3.31,6.51,1.46,2.33,2.65,4.66,3.44,7.31,1.37,4.62,1.27,9.42-.41,13.95s-4.78,8.66-8.83,11.47ZM111.89,162.89c.3.32,1.43.11,2.25-.22,1.87-.74,3.41-1.88,4.85-3.26,5.39-5.15,7.83-12.42,5.79-19.71-.65-2.32-1.62-4.38-2.89-6.42-2.28-3.67-4.82-8.27-4.91-12.57-.06-2.87,1.39-5.35,3.89-6.72,1.18-.65,2.39-1.19,3.73-1.44l5.94-1.09c1.71-.31,5.14-.74,5.48-1.94.54-1.94-3.38-4.86-5.17-6.34l-8.2-6.8-4.32-4.33c-5.21-5.7-9.05-12.37-11.31-19.77-1.28-4.19-2.01-8.39-2.4-12.73-.09-.97.46-1.76,1.36-1.84.98-.08,1.62.6,1.7,1.58.58,7.4,2.53,14.85,6.25,21.49.55-2.59,1.25-5,2.31-7.42l3.56-6.94,5.4-8.94,4.11-7.6c2.3-4.85,3.75-9.92,4.11-15.29.25-3.74-.08-8.23-2.63-10.93-1.19-1.26-2.74-1.96-4.45-1.81-1.55.14-2.93.97-3.95,2.26l-4.36,5.47c-1.78,2.23-3.62,4.3-5.75,6.2s-4.88,3.71-7.83,4.02c-.88.09-1.5-.41-1.77-1.21-2.87-8.7-7.25-17.58-13.55-24.29-2.02-2.15-4.1-4.04-6.53-5.71C70.13.01,55.4,1.52,45.02,12.51c-8.87,9.4-11.96,22.95-11.71,35.63.02.91-.63,1.59-1.49,1.64-.71.04-1.59-.57-1.58-1.41l.09-5.84c-2.71-.97-5.16-2.44-7.2-4.47l-3.06-3.06c-1.34-1.34-2.56-2.72-3.98-3.98-1.75-1.55-3.72-2.78-5.97-3.31-2.51-.59-4.77.49-5.9,2.75-1.87,3.73-1.18,8.76.04,12.77,2.02,6.62,6.3,12.92,10.95,18l5.46,5.46c5.36,5.12,10.14,10.62,14.69,16.62l-.78-8.34c-.45-3.41-1.16-6.66-2.15-9.95-.27-.9.32-1.74,1.16-1.91s1.57.31,1.83,1.2c1.16,3.88,2.03,7.75,2.39,11.79l.78,8.8c.23,2.65.48,5.16.98,7.78,1.59,8.28,5.87,14.43,12.08,19.95,2.51,2.23,5,4.32,7.84,6.12l9.04,5.72c7.95,5.03,12.5,9.8,17.17,18.03l2.75,4.42c.74,1.19,2.25,1.34,3.34.44.66-.54,1.11-1.33,1.4-2.18,1.13-3.35.31-7.31-.77-10.71l-3.93-2.97c-.77-.58-.9-1.57-.31-2.27s1.53-.68,2.31-.11c5.86,4.3,11.94,9.37,16.18,15.3,7.64,10.68,4.56,17.76,5.23,18.49Z"/>
        <path class="cls-1" d="M111.89,162.89c-.67-.72,2.42-7.8-5.23-18.49-4.24-5.93-10.32-11-16.18-15.3-.78-.57-1.7-.61-2.31.11s-.45,1.69.31,2.27l3.93,2.97c1.08,3.39,1.9,7.36.77,10.71-.28.84-.74,1.63-1.4,2.18-1.09.9-2.6.75-3.34-.44l-2.75-4.42c-4.67-8.23-9.21-12.99-17.17-18.03l-9.04-5.72c-2.84-1.8-5.33-3.89-7.84-6.12-6.21-5.52-10.49-11.67-12.08-19.95-.5-2.62-.75-5.13-.98-7.78l-.78-8.8c-.36-4.05-1.23-7.92-2.39-11.79-.27-.89-1.01-1.37-1.83-1.2s-1.43,1.01-1.16,1.91c.98,3.28,1.7,6.53,2.15,9.95l.78,8.34c-4.55-5.99-9.33-11.49-14.69-16.62l-5.46-5.46c-4.65-5.09-8.94-11.38-10.95-18-1.22-4.02-1.91-9.04-.04-12.77,1.13-2.26,3.39-3.34,5.9-2.75,2.24.53,4.21,1.76,5.97,3.31,1.42,1.26,2.64,2.64,3.98,3.98l3.06,3.06c2.04,2.04,4.49,3.5,7.2,4.47l-.09,5.84c-.01.84.86,1.46,1.58,1.41.86-.05,1.51-.74,1.49-1.64-.25-12.67,2.84-26.23,11.71-35.63C55.4,1.52,70.13.01,82.62,8.6c2.43,1.67,4.51,3.55,6.53,5.71,6.3,6.71,10.67,15.59,13.55,24.29.27.81.89,1.31,1.77,1.21,2.96-.31,5.63-2.05,7.83-4.02s3.96-3.97,5.75-6.2l4.36-5.47c1.03-1.29,2.4-2.12,3.95-2.26,1.7-.15,3.26.56,4.45,1.81,2.55,2.71,2.88,7.2,2.63,10.93-.36,5.37-1.81,10.44-4.11,15.29l-4.11,7.6-5.4,8.94-3.56,6.94c-1.06,2.41-1.77,4.83-2.31,7.42-3.72-6.64-5.67-14.09-6.25-21.49-.08-.98-.72-1.67-1.7-1.58-.91.08-1.45.87-1.36,1.84.39,4.34,1.13,8.55,2.4,12.73,2.25,7.4,6.09,14.07,11.31,19.77l4.32,4.33,8.2,6.8c1.79,1.48,5.71,4.41,5.17,6.34-.34,1.2-3.77,1.62-5.48,1.94l-5.94,1.09c-1.34.25-2.55.79-3.73,1.44-2.49,1.37-3.94,3.85-3.89,6.72.08,4.31,2.63,8.9,4.91,12.57,1.27,2.04,2.24,4.1,2.89,6.42,2.04,7.29-.4,14.56-5.79,19.71-1.44,1.38-2.99,2.52-4.85,3.26-.83.33-1.95.54-2.25.22ZM77.37,39.03c2.31.7,4.59-.21,5.81-2.21,3.11-5.08-.27-13.53-5.85-14.95-1.92-.49-3.82.14-5.07,1.66-3.75,4.57-.73,13.72,5.11,15.49ZM53.13,41.66c5.27-3.27,5.85-13.13.83-16.88-1.7-1.27-3.89-1.34-5.71-.27-5.32,3.14-5.99,13.01-1.07,16.86,1.74,1.36,4.01,1.49,5.95.29ZM103.34,113.34c-7.69-9.92-13.78-21.35-15.44-33.85-.13-.98-.9-1.61-1.83-1.46s-1.36.99-1.22,1.97c1.83,13.12,7.98,24.74,15.98,35.13.59.77,1.49.97,2.21.45s.92-1.46.31-2.25ZM62.89,107.17c-4.78-6.31-8.18-13.62-8.55-21.54-.05-.99-.71-1.68-1.64-1.62s-1.47.8-1.43,1.75c.44,8.72,4.05,16.68,9.36,23.48.56.72,1.6.59,2.13.11.64-.59.7-1.43.14-2.18Z"/>
        <path d="M53.13,41.66c-1.94,1.21-4.21,1.07-5.95-.29-4.92-3.85-4.25-13.72,1.07-16.86,1.82-1.07,4.01-1,5.71.27,5.02,3.75,4.44,13.61-.83,16.88Z"/>
        <path d="M77.37,39.03c-5.84-1.77-8.85-10.92-5.11-15.49,1.25-1.52,3.15-2.15,5.07-1.66,5.58,1.42,8.96,9.86,5.85,14.95-1.22,1.99-3.5,2.91-5.81,2.21Z"/>
        <path d="M103.34,113.34c.61.79.39,1.75-.31,2.25s-1.62.31-2.21-.45c-8-10.39-14.15-22-15.98-35.13-.14-.98.29-1.82,1.22-1.97s1.7.47,1.83,1.46c1.66,12.5,7.75,23.93,15.44,33.85Z"/>
        <path d="M62.89,107.17c.56.74.5,1.58-.14,2.18-.52.48-1.56.61-2.13-.11-5.3-6.8-8.91-14.76-9.36-23.48-.05-.95.53-1.69,1.43-1.75s1.6.63,1.64,1.62c.37,7.92,3.78,15.23,8.55,21.54Z"/>
      </g>
    </g>
  </g>
</svg>